# xmcd
#
# Track frame offsets:
#	150
#	11215
#	24387
#	39495
#	58375
#	69920
#	84322
#	101870
#	120012
#	131502
#	145572
#	161850
#	178287
#	196212
#	211277
#	225425
#	242680
#	257217
#	272577
#	290527
#
# Disc length: 4048 seconds
#
# Revision: 5
# Processed by: cddbd v1.5.1PL2 Copyright (c) Steve Scherf et al.
# Submitted via: audiograbber 1.82.01
#
DISCID=1a0fce14
DTITLE=Various Artist - 25 Years of Number 1 Hits Country
DYEAR=1997
DGENRE=Country
TTITLE0=Conway Twitty - Hello Darlin'
TTITLE1=Faron Young - It's Four In The Morning
TTITLE2=Merle Haggard - It's Not Love (But It's Not Bad)
TTITLE3=Tom T. Hall - (Old Dogs, Children And) Watermellon Wine
TTITLE4=Freddy Fender - Before The Next Teardrop Falls
TTITLE5=Glen Campbell - Rhinestone Cowboy
TTITLE6=Emmylou Harris - Together Again
TTITLE7=Jonny Cash - One Piece At A Time
TTITLE8=Crystal Gayle - Don't It Make Your Brown Eyes Blue
TTITLE9=John Conlee - Lady Lay Down
TTITLE10=Charley Daniels Band - The Devil Went Down To Georgia
TTITLE11=Barbara Mandrell - I Was Country When Country Wasn't Cool
TTITLE12=Hank Williams Jr. - All My Rowdy Friends (Have Settled Down)
TTITLE13=Ricky Skaggs - Don't Cheat In Our Hometown
TTITLE14=Randy Travis - On The Other Hand
TTITLE15=Dwight Yoakam - I Sang Dixie
TTITLE16=Sawyer Brown - Some Girls Do
TTITLE17=Billy Ray Cyrus - Achy Breaky Heart
TTITLE18=Vince Gill - I Still Believe In You
TTITLE19=Sammy Kershaw - She Don't Know She's Beatifull
EXTD=YEAR: 1997
EXTT0=
EXTT1=
EXTT2=
EXTT3=
EXTT4=
EXTT5=
EXTT6=
EXTT7=
EXTT8=
EXTT9=
EXTT10=
EXTT11=
EXTT12=
EXTT13=
EXTT14=
EXTT15=
EXTT16=
EXTT17=
EXTT18=
EXTT19=
PLAYORDER=
